<?xml version="1.0" encoding="UTF-8" standalone="no"?>
<!-- Created with Inkscape (http://www.inkscape.org/) -->
<svg
   xmlns:dc="http://purl.org/dc/elements/1.1/"
   xmlns:cc="http://creativecommons.org/ns#"
   xmlns:rdf="http://www.w3.org/1999/02/22-rdf-syntax-ns#"
   xmlns:svg="http://www.w3.org/2000/svg"
   xmlns="http://www.w3.org/2000/svg"
   xmlns:xlink="http://www.w3.org/1999/xlink"
   xmlns:sodipodi="http://sodipodi.sourceforge.net/DTD/sodipodi-0.dtd"
   xmlns:inkscape="http://www.inkscape.org/namespaces/inkscape"
   width="1052.3622"
   height="744.09448"
   id="svg2"
   sodipodi:version="0.32"
   inkscape:version="0.46"
   version="1.0"
   sodipodi:docname="catmull-rom-tangent.svg"
   inkscape:output_extension="org.inkscape.output.svg.inkscape">
  <defs
     id="defs4">
    <linearGradient
       inkscape:collect="always"
       id="linearGradient3268">
      <stop
         style="stop-color:#ffffff;stop-opacity:1;"
         offset="0"
         id="stop3270" />
      <stop
         style="stop-color:#ffffff;stop-opacity:0;"
         offset="1"
         id="stop3272" />
    </linearGradient>
    <inkscape:perspective
       sodipodi:type="inkscape:persp3d"
       inkscape:vp_x="0 : 526.18109 : 1"
       inkscape:vp_y="0 : 1000 : 0"
       inkscape:vp_z="744.09448 : 526.18109 : 1"
       inkscape:persp3d-origin="372.04724 : 350.78739 : 1"
       id="perspective10" />
    <linearGradient
       inkscape:collect="always"
       xlink:href="#linearGradient3268"
       id="linearGradient3274"
       x1="727.14288"
       y1="716.9516"
       x2="835.71429"
       y2="654.09442"
       gradientUnits="userSpaceOnUse" />
  </defs>
  <sodipodi:namedview
     id="base"
     pagecolor="#ffffff"
     bordercolor="#666666"
     borderopacity="1.0"
     gridtolerance="10000"
     guidetolerance="10"
     objecttolerance="10"
     inkscape:pageopacity="0.0"
     inkscape:pageshadow="2"
     inkscape:zoom="0.7"
     inkscape:cx="507.80143"
     inkscape:cy="245.90398"
     inkscape:document-units="px"
     inkscape:current-layer="g3246"
     showgrid="false" />
  <metadata
     id="metadata7">
    <rdf:RDF>
      <cc:Work
         rdf:about="">
        <dc:format>image/svg+xml</dc:format>
        <dc:type
           rdf:resource="http://purl.org/dc/dcmitype/StillImage" />
      </cc:Work>
    </rdf:RDF>
  </metadata>
  <g
     inkscape:label="Layer 1"
     inkscape:groupmode="layer"
     id="layer1">
    <text
       xml:space="preserve"
       style="font-size:40px;font-style:normal;font-variant:normal;font-weight:normal;font-stretch:normal;fill:#000000;fill-opacity:1;stroke:none;stroke-width:1px;stroke-linecap:butt;stroke-linejoin:miter;stroke-opacity:1;font-family:Garuda;-inkscape-font-specification:Garuda"
       x="453.5585"
       y="409.73398"
       id="text3225"><tspan
         sodipodi:role="line"
         id="tspan3227"
         x="453.5585"
         y="409.73398" /></text>
    <text
       xml:space="preserve"
       style="font-size:40px;font-style:normal;font-variant:normal;font-weight:normal;font-stretch:normal;fill:#000000;fill-opacity:1;stroke:none;stroke-width:1px;stroke-linecap:butt;stroke-linejoin:miter;stroke-opacity:1;font-family:Garuda;-inkscape-font-specification:Garuda"
       x="744.98749"
       y="203.66287"
       id="text3241"><tspan
         sodipodi:role="line"
         id="tspan3243"
         x="744.98749"
         y="203.66287" /></text>
    <g
       id="g3246"
       transform="translate(0,-51.42856)">
      <rect
         style="opacity:1;fill:#ffffff;fill-opacity:1;fill-rule:evenodd;stroke:none;stroke-width:1px;stroke-linecap:butt;stroke-linejoin:miter;marker:none;marker-start:none;marker-mid:none;marker-end:none;stroke-miterlimit:4;stroke-dasharray:none;stroke-dashoffset:0;stroke-opacity:1;visibility:visible;display:inline;overflow:visible;enable-background:accumulate"
         id="rect3264"
         width="1134.2858"
         height="834.28571"
         x="-40"
         y="-44.476948"
         transform="translate(0,51.42856)" />
      <path
         style="opacity:1;fill:none;fill-opacity:1;fill-rule:evenodd;stroke:#000000;stroke-width:3;stroke-linecap:butt;stroke-linejoin:miter;marker:none;marker-start:none;marker-mid:none;marker-end:none;stroke-miterlimit:4;stroke-dasharray:3,3;stroke-dashoffset:0;stroke-opacity:1;visibility:visible;display:inline;overflow:visible;enable-background:accumulate"
         d="M 75.71429,666.95163 C 145.24109,537.31867 397.16249,201.10725 525.71429,178.3802 C 654.38668,155.63184 861.59748,373.37717 898.57143,521.23734"
         id="path3392"
         sodipodi:nodetypes="czz" />
      <path
         sodipodi:nodetypes="cc"
         style="opacity:1;fill:none;fill-opacity:1;fill-rule:evenodd;stroke:#bc6a13;stroke-width:2;stroke-linecap:butt;stroke-linejoin:round;marker:none;marker-start:none;marker-mid:none;marker-end:none;stroke-miterlimit:4;stroke-dasharray:none;stroke-dashoffset:0;stroke-opacity:1;visibility:visible;display:inline;overflow:visible;enable-background:accumulate"
         d="M 525.54865,178.63195 L 939.03577,104.89137"
         id="path3229" />
      <path
         style="opacity:1;fill:none;fill-opacity:1;fill-rule:evenodd;stroke:#000000;stroke-width:3;stroke-linecap:butt;stroke-linejoin:miter;marker:none;marker-start:none;marker-mid:none;marker-end:none;stroke-miterlimit:4;stroke-dasharray:9,3;stroke-dashoffset:0;stroke-opacity:1;visibility:visible;display:inline;overflow:visible;enable-background:accumulate"
         d="M 75.71429,666.95163 C 145.24109,537.31867 109.22663,252.72176 525.71429,178.3802 C 942.07782,104.0608 861.59748,373.37717 898.57143,521.23734"
         id="path3412"
         sodipodi:nodetypes="czz" />
      <path
         id="path4559"
         style="font-size:12px;opacity:1;fill:#bc6a13;fill-opacity:1;fill-rule:evenodd;stroke-width:0.625;stroke-linecap:butt;stroke-linejoin:round;marker:none;marker-start:none;marker-mid:none;marker-end:none;stroke-miterlimit:4;stroke-dasharray:none;stroke-dashoffset:0;stroke-opacity:1;visibility:visible;display:inline;overflow:visible;enable-background:accumulate"
         d="M 867.2822,516.71919 L 898.69439,522.89342 L 870.76557,538.54039 C 874.47739,531.3421 873.04319,522.53323 867.2822,516.71919 z" />
      <path
         id="path3202"
         d="M 75.761441,668.33304 L 899.03577,522.87107"
         style="opacity:1;fill:none;fill-opacity:1;fill-rule:evenodd;stroke:#bc6a13;stroke-width:2;stroke-linecap:butt;stroke-linejoin:round;marker:none;marker-start:none;marker-mid:none;marker-end:none;stroke-miterlimit:4;stroke-dasharray:none;stroke-dashoffset:0;stroke-opacity:1;visibility:visible;display:inline;overflow:visible;enable-background:accumulate" />
      <path
         sodipodi:nodetypes="czzc"
         id="path3153"
         d="M 75.71429,666.95163 C 145.24109,537.31867 308.43277,216.55783 525.71429,178.3802 C 741.36353,140.48937 861.59748,373.37717 898.57143,521.23734 C 935.54538,669.09751 814.34036,722.72055 711.42857,762.6659"
         style="opacity:1;fill:none;fill-opacity:1;fill-rule:evenodd;stroke:#000000;stroke-width:3;stroke-linecap:butt;stroke-linejoin:miter;marker:none;marker-start:none;marker-mid:none;marker-end:none;stroke-miterlimit:4;stroke-dasharray:none;stroke-dashoffset:0;stroke-opacity:1;visibility:visible;display:inline;overflow:visible;enable-background:accumulate" />
      <path
         id="path3228"
         d="M 531.76342,178.29355 C 531.76342,181.64497 529.04342,184.36497 525.69199,184.36497 C 522.34056,184.36497 519.62056,181.64497 519.62056,178.29355 C 519.62056,174.94212 522.34056,172.22212 525.69199,172.22212 C 529.04342,172.22212 531.76342,174.94212 531.76342,178.29355 z"
         style="fill:#89b4f9;fill-opacity:1;fill-rule:evenodd;stroke:#18309a;stroke-width:2;stroke-linecap:butt;stroke-linejoin:miter;marker:none;marker-start:none;marker-mid:none;marker-end:none;stroke-miterlimit:4;stroke-dashoffset:0;stroke-opacity:1;visibility:visible;display:inline;overflow:visible;enable-background:accumulate" />
      <path
         style="fill:#89b4f9;fill-opacity:1;fill-rule:evenodd;stroke:#18309a;stroke-width:2;stroke-linecap:butt;stroke-linejoin:miter;marker:none;marker-start:none;marker-mid:none;marker-end:none;stroke-miterlimit:4;stroke-dashoffset:0;stroke-opacity:1;visibility:visible;display:inline;overflow:visible;enable-background:accumulate"
         d="M 81.597541,667.2834 C 81.597541,670.63482 78.877541,673.35482 75.526111,673.35482 C 72.174681,673.35482 69.454681,670.63482 69.454681,667.2834 C 69.454681,663.93197 72.174681,661.21197 75.526111,661.21197 C 78.877541,661.21197 81.597541,663.93197 81.597541,667.2834 z"
         id="path3189" />
      <path
         style="fill:#89b4f9;fill-opacity:1;fill-rule:evenodd;stroke:#18309a;stroke-width:2;stroke-linecap:butt;stroke-linejoin:miter;marker:none;marker-start:none;marker-mid:none;marker-end:none;stroke-miterlimit:4;stroke-dashoffset:0;stroke-opacity:1;visibility:visible;display:inline;overflow:visible;enable-background:accumulate"
         d="M 905.33484,521.86498 C 905.33484,525.2164 902.61484,527.9364 899.26341,527.9364 C 895.91198,527.9364 893.19198,525.2164 893.19198,521.86498 C 893.19198,518.51355 895.91198,515.79355 899.26341,515.79355 C 902.61484,515.79355 905.33484,518.51355 905.33484,521.86498 z"
         id="path3191" />
      <path
         id="text4569"
         d="M 80.445575,688.77228 C 81.687855,690.33587 82.308995,692.39207 82.309015,694.94089 C 82.308995,697.48973 81.645015,699.61019 80.317065,701.30227 C 79.010505,702.97293 77.243455,703.80827 75.015915,703.80827 C 73.238155,703.80827 71.792385,703.10145 70.678615,701.68781 L 70.678615,709.81623 L 67.819205,709.81623 L 67.819205,686.78034 L 70.389465,686.78034 L 70.389465,688.93293 C 71.610325,687.24086 73.216735,686.39482 75.208685,686.3948 C 77.457645,686.39482 79.203275,687.18731 80.445575,688.77228 M 74.951665,688.61164 C 73.580855,688.61166 72.477785,689.22209 71.642455,690.44295 C 70.807125,691.64241 70.389455,693.2274 70.389465,695.19792 C 70.389455,696.9971 70.742865,698.49641 71.449695,699.69586 C 72.156505,700.8739 73.291695,701.46291 74.855275,701.46291 C 76.333165,701.46291 77.457645,700.8739 78.228735,699.69586 C 78.999795,698.49641 79.385335,696.91143 79.385345,694.94089 C 79.385335,693.07747 78.999795,691.55674 78.228735,690.37869 C 77.479065,689.20067 76.386705,688.61166 74.951665,688.61164 M 84.286495,704.06965 C 84.286495,699.75806 85.670675,697.60226 88.439055,697.60225 C 91.183865,697.60226 92.556275,699.75806 92.556285,704.06965 C 92.556275,708.36947 91.183865,710.51938 88.439055,710.51938 C 85.670675,710.51938 84.286495,708.36947 84.286495,704.06965 M 85.894505,704.06965 C 85.894505,707.52129 86.742685,709.24711 88.439055,709.24711 C 90.111855,709.24711 90.948265,707.52129 90.948265,704.06965 C 90.948265,700.60624 90.100075,698.87454 88.403715,698.87453 C 86.730905,698.87454 85.894505,700.60624 85.894505,704.06965"
         style="font-size:32.1281662px;font-style:normal;font-variant:normal;font-weight:normal;font-stretch:normal;fill:#000000;fill-opacity:1;stroke:none;stroke-width:1px;stroke-linecap:butt;stroke-linejoin:miter;stroke-opacity:1;display:inline;font-family:Garuda;-inkscape-font-specification:Garuda" />
      <path
         id="text4575"
         d="M 529.77804,203.33477 C 531.02032,204.89835 531.64146,206.95455 531.64148,209.50337 C 531.64146,212.05221 530.97748,214.17267 529.64953,215.86475 C 528.34297,217.53542 526.57592,218.37075 524.34838,218.37075 C 522.57062,218.37075 521.12485,217.66393 520.01108,216.25029 L 520.01108,224.37871 L 517.15167,224.37871 L 517.15167,201.34282 L 519.72193,201.34282 L 519.72193,203.49541 C 520.94279,201.80334 522.5492,200.9573 524.54115,200.95728 C 526.79011,200.9573 528.53574,201.74979 529.77804,203.33477 M 524.28413,203.17412 C 522.91332,203.17414 521.81025,203.78457 520.97492,205.00543 C 520.13959,206.20489 519.72192,207.78988 519.72193,209.7604 C 519.72192,211.55958 520.07533,213.0589 520.78216,214.25834 C 521.48897,215.43638 522.62416,216.02539 524.18774,216.02539 C 525.66563,216.02539 526.79011,215.43638 527.5612,214.25834 C 528.33226,213.0589 528.7178,211.47391 528.71781,209.50337 C 528.7178,207.63995 528.33226,206.11922 527.5612,204.94117 C 526.81153,203.76316 525.71917,203.17414 524.28413,203.17412 M 539.46789,224.5512 L 537.93056,224.5512 L 537.93056,214.69107 C 537.11771,215.48036 536.08104,216.1106 534.82055,216.58181 L 534.82055,215.06215 C 536.63472,214.23753 537.85398,213.1832 538.47834,211.89913 L 539.46789,211.89913 L 539.46789,224.5512"
         style="font-size:32.1281662px;font-style:normal;font-variant:normal;font-weight:normal;font-stretch:normal;fill:#000000;fill-opacity:1;stroke:none;stroke-width:1px;stroke-linecap:butt;stroke-linejoin:miter;stroke-opacity:1;display:inline;font-family:Garuda;-inkscape-font-specification:Garuda" />
      <path
         id="text4581"
         d="M 904.41505,543.75618 C 905.65732,545.31976 906.27847,547.37596 906.27849,549.92478 C 906.27847,552.47362 905.61449,554.59408 904.28654,556.28616 C 902.97998,557.95683 901.21293,558.79216 898.98539,558.79216 C 897.20763,558.79216 895.76186,558.08534 894.64809,556.6717 L 894.64809,564.80012 L 891.78868,564.80012 L 891.78868,541.76423 L 894.35894,541.76423 L 894.35894,543.91682 C 895.5798,542.22475 897.18621,541.37871 899.17816,541.37869 C 901.42712,541.37871 903.17275,542.1712 904.41505,543.75618 M 898.92114,543.59554 C 897.55033,543.59555 896.44726,544.20598 895.61193,545.42684 C 894.7766,546.6263 894.35893,548.21129 894.35894,550.18181 C 894.35893,551.98099 894.71234,553.48031 895.41917,554.67975 C 896.12598,555.85779 897.26117,556.4468 898.82475,556.4468 C 900.30264,556.4468 901.42712,555.85779 902.19821,554.67975 C 902.96927,553.48031 903.35481,551.89532 903.35482,549.92478 C 903.35481,548.06136 902.96927,546.54063 902.19821,545.36258 C 901.44854,544.18457 900.35618,543.59555 898.92114,543.59554 M 916.38439,555.78396 C 916.38438,556.40832 916.21357,557.02679 915.87195,557.63936 C 915.54209,558.24016 915.11211,558.79384 914.582,559.30038 C 914.06366,559.80694 913.52766,560.28994 912.97399,560.74936 C 912.42031,561.19702 911.87841,561.66823 911.3483,562.163 C 910.81818,562.646 910.42943,563.08776 910.18205,563.48829 L 916.38439,563.48829 L 916.38439,564.97261 L 908.02625,564.97261 C 908.02625,564.3836 908.2383,563.75335 908.66239,563.08187 C 909.09826,562.39861 909.56358,561.82727 910.05836,561.36783 C 910.56491,560.9084 911.13036,560.41363 911.75472,559.88351 C 912.39086,559.3534 912.79139,558.99999 912.95632,558.82328 C 914.18146,557.63347 914.79404,556.6027 914.79405,555.73094 C 914.79404,555.08304 914.56432,554.55881 914.1049,554.15827 C 913.64546,553.74597 913.08001,553.53981 912.40853,553.5398 C 911.64281,553.53981 911.03612,553.76953 910.58847,554.22895 C 910.14082,554.67662 909.91699,555.29508 909.91699,556.08435 L 908.30898,555.92532 C 908.54458,553.4868 909.91699,552.26754 912.4262,552.26753 C 913.59245,552.26754 914.54076,552.58561 915.27115,553.22173 C 916.0133,553.85788 916.38438,554.71196 916.38439,555.78396"
         style="font-size:32.1281662px;font-style:normal;font-variant:normal;font-weight:normal;font-stretch:normal;fill:#000000;fill-opacity:1;stroke:none;stroke-width:1px;stroke-linecap:butt;stroke-linejoin:miter;stroke-opacity:1;display:inline;font-family:Garuda;-inkscape-font-specification:Garuda" />
      <g
         transform="matrix(0.9848913,-0.1731735,0.1731735,0.9848913,-124.01791,120.971)"
         id="g3220">
        <path
           id="path3205"
           d="M 507.27219,546.60611 C 508.51446,548.16969 509.13561,550.22589 509.13563,552.77471 C 509.13561,555.32355 508.47163,557.44401 507.14368,559.13609 C 505.83712,560.80676 504.07007,561.64209 501.84253,561.64209 C 500.06477,561.64209 498.619,560.93527 497.50523,559.52163 L 497.50523,567.65005 L 494.64582,567.65005 L 494.64582,544.61416 L 497.21608,544.61416 L 497.21608,546.76675 C 498.43694,545.07468 500.04335,544.22864 502.0353,544.22862 C 504.28426,544.22864 506.02989,545.02113 507.27219,546.60611 M 501.77828,546.44547 C 500.40747,546.44548 499.3044,547.05591 498.46907,548.27677 C 497.63374,549.47623 497.21607,551.06122 497.21608,553.03174 C 497.21607,554.83092 497.56948,556.33024 498.27631,557.52968 C 498.98312,558.70772 500.11831,559.29673 501.68189,559.29673 C 503.15978,559.29673 504.28426,558.70772 505.05535,557.52968 C 505.82641,556.33024 506.21195,554.74525 506.21196,552.77471 C 506.21195,550.91129 505.82641,549.39056 505.05535,548.21251 C 504.30568,547.0345 503.21332,546.44548 501.77828,546.44547 M 519.24153,558.63389 C 519.24152,559.25825 519.07071,559.87672 518.72909,560.48929 C 518.39923,561.09009 517.96925,561.64377 517.43914,562.15031 C 516.9208,562.65687 516.3848,563.13987 515.83113,563.59929 C 515.27745,564.04695 514.73555,564.51816 514.20544,565.01293 C 513.67532,565.49593 513.28657,565.93769 513.03919,566.33822 L 519.24153,566.33822 L 519.24153,567.82254 L 510.88339,567.82254 C 510.88339,567.23353 511.09544,566.60328 511.51953,565.9318 C 511.9554,565.24854 512.42072,564.6772 512.9155,564.21776 C 513.42205,563.75833 513.9875,563.26356 514.61186,562.73344 C 515.248,562.20333 515.64853,561.84992 515.81346,561.67321 C 517.0386,560.4834 517.65118,559.45263 517.65119,558.58087 C 517.65118,557.93297 517.42146,557.40874 516.96204,557.0082 C 516.5026,556.5959 515.93715,556.38974 515.26567,556.38973 C 514.49995,556.38974 513.89326,556.61946 513.44561,557.07888 C 512.99796,557.52655 512.77413,558.14501 512.77413,558.93428 L 511.16612,558.77525 C 511.40172,556.33673 512.77413,555.11747 515.28334,555.11746 C 516.44959,555.11747 517.3979,555.43554 518.12829,556.07166 C 518.87044,556.70781 519.24152,557.56189 519.24153,558.63389"
           style="font-size:32.1281662px;font-style:normal;font-variant:normal;font-weight:normal;font-stretch:normal;fill:#000000;fill-opacity:1;stroke:none;stroke-width:1px;stroke-linecap:butt;stroke-linejoin:miter;stroke-opacity:1;display:inline;font-family:Garuda;-inkscape-font-specification:Garuda" />
        <path
           id="path3213"
           d="M 554.20712,546.34077 C 555.4494,547.90436 556.07054,549.96056 556.07056,552.50938 C 556.07054,555.05822 555.40656,557.17868 554.07861,558.87076 C 552.77205,560.54142 551.005,561.37676 548.77746,561.37676 C 546.9997,561.37676 545.55393,560.66994 544.44016,559.2563 L 544.44016,567.38472 L 541.58075,567.38472 L 541.58075,544.34883 L 544.15101,544.34883 L 544.15101,546.50142 C 545.37187,544.80935 546.97828,543.96331 548.97023,543.96329 C 551.21919,543.96331 552.96482,544.7558 554.20712,546.34077 M 548.71321,546.18013 C 547.3424,546.18015 546.23933,546.79058 545.404,548.01144 C 544.56867,549.2109 544.151,550.79589 544.15101,552.76641 C 544.151,554.56559 544.50441,556.0649 545.21124,557.26435 C 545.91805,558.44239 547.05324,559.0314 548.61682,559.0314 C 550.09471,559.0314 551.21919,558.44239 551.99028,557.26435 C 552.76134,556.0649 553.14688,554.47992 553.14689,552.50938 C 553.14688,550.64596 552.76134,549.12523 551.99028,547.94718 C 551.24061,546.76916 550.14825,546.18015 548.71321,546.18013 M 558.04804,561.63814 C 558.04804,557.32655 559.43222,555.17075 562.2006,555.17074 C 564.94541,555.17075 566.31782,557.32655 566.31783,561.63814 C 566.31782,565.93796 564.94541,568.08787 562.2006,568.08787 C 559.43222,568.08787 558.04804,565.93796 558.04804,561.63814 M 559.65605,561.63814 C 559.65605,565.08978 560.50423,566.8156 562.2006,566.8156 C 563.8734,566.8156 564.70981,565.08978 564.70981,561.63814 C 564.70981,558.17473 563.86162,556.44303 562.16526,556.44302 C 560.49245,556.44303 559.65605,558.17473 559.65605,561.63814"
           style="font-size:32.1281662px;font-style:normal;font-variant:normal;font-weight:normal;font-stretch:normal;fill:#000000;fill-opacity:1;stroke:none;stroke-width:1px;stroke-linecap:butt;stroke-linejoin:miter;stroke-opacity:1;display:inline;font-family:Garuda;-inkscape-font-specification:Garuda" />
        <path
           style="font-size:40px;font-style:normal;font-variant:normal;font-weight:normal;font-stretch:normal;fill:#000000;fill-opacity:1;stroke:none;stroke-width:1px;stroke-linecap:butt;stroke-linejoin:miter;stroke-opacity:1;font-family:Garuda;-inkscape-font-specification:Garuda"
           d="M 524.3157,557.10164 L 524.3157,554.83164 L 535.1157,554.83164 L 535.1157,557.10164 L 524.3157,557.10164"
           id="text3215" />
      </g>
      <path
         d="M 911.58285,97.862058 L 942.99504,104.03629 L 915.06622,119.68326 C 918.77804,112.48497 917.34384,103.6761 911.58285,97.862058 z"
         style="font-size:12px;opacity:1;fill:#bc6a13;fill-opacity:1;fill-rule:evenodd;stroke-width:0.625;stroke-linecap:butt;stroke-linejoin:round;marker:none;marker-start:none;marker-mid:none;marker-end:none;stroke-miterlimit:4;stroke-dasharray:none;stroke-dashoffset:0;stroke-opacity:1;visibility:visible;display:inline;overflow:visible;enable-background:accumulate"
         id="path3231" />
      <path
         id="text4593"
         d="M 735.56109,113.91652 C 734.00106,114.19674 733.02923,114.90446 732.64558,116.03968 C 732.27922,117.15005 732.26076,118.62228 732.5902,120.45634 L 734.12379,128.99431 L 731.30942,129.49982 L 728.3672,113.11958 L 730.83372,112.67654 L 731.24267,114.95333 C 732.08407,112.97424 733.59047,111.78969 735.76186,111.39965 C 738.14404,110.97178 739.85339,111.64401 740.88988,113.41635 C 741.85612,111.28428 743.38277,110.03079 745.46983,109.65589 C 748.84285,109.05005 750.85879,110.58121 751.5177,114.24935 L 753.53976,125.50681 L 750.78864,126.00097 L 748.93697,115.69216 C 748.45226,112.99375 747.22962,111.82063 745.26907,112.17278 C 742.61281,112.6499 741.57246,114.49065 742.14805,117.695 L 743.8634,127.24488 L 741.04903,127.7504 L 739.13488,117.09374 C 738.69183,114.62723 737.50057,113.56816 735.56109,113.91652 M 763.16267,130.44941 L 761.64955,130.7212 L 759.90637,121.01637 C 759.24586,121.93693 758.33694,122.74053 757.17961,123.42716 L 756.91095,121.93143 C 758.55076,120.79908 759.56442,119.54579 759.95193,118.17158 L 760.92589,117.99663 L 763.16267,130.44941"
         style="font-size:32.1281662px;font-style:normal;font-variant:normal;font-weight:normal;font-stretch:normal;fill:#000000;fill-opacity:1;stroke:none;stroke-width:1px;stroke-linecap:butt;stroke-linejoin:miter;stroke-opacity:1;display:inline;font-family:Garuda;-inkscape-font-specification:Garuda" />
      <path
         style="font-size:28.3772316px;font-style:normal;font-variant:normal;font-weight:normal;font-stretch:normal;fill:#000000;fill-opacity:1;stroke:none;stroke-width:1px;stroke-linecap:butt;stroke-linejoin:miter;stroke-opacity:1;font-family:Garuda;-inkscape-font-specification:Garuda"
         d="M 745.47457,222.06572 L 745.47457,223.60944 L 743.52221,223.60944 L 743.52221,231.75938 C 743.52221,232.18315 743.59031,232.47071 743.72653,232.62205 C 743.87787,232.75826 744.15786,232.82637 744.5665,232.82637 C 744.94485,232.82637 745.24754,232.7961 745.47457,232.73556 L 745.47457,234.32468 C 744.88432,234.43063 744.36974,234.4836 743.93085,234.4836 C 743.18925,234.4836 742.62171,234.31712 742.22821,233.98416 C 741.83471,233.66633 741.63796,233.20473 741.63796,232.59935 L 741.63796,223.60944 L 740.02614,223.60944 L 740.02614,222.06572 L 741.63796,222.06572 L 741.63796,218.79666 L 743.52221,218.79666 L 743.52221,222.06572 L 745.47457,222.06572 M 749.6946,233.13041 L 747.46699,233.13041 L 747.46699,232.23653 C 748.43182,232.11357 749.06084,231.9433 749.35408,231.72574 C 749.64731,231.50819 749.9027,231.01159 750.12026,230.23593 L 750.9432,230.23593 L 750.9432,240.29566 L 749.6946,240.29566 L 749.6946,233.13041 M 772.34281,226.70783 L 772.34281,228.29696 L 761.35515,228.29696 L 761.35515,226.70783 L 772.34281,226.70783 M 772.34281,230.61254 L 772.34281,232.20166 L 761.35515,232.20166 L 761.35515,230.61254 L 772.34281,230.61254 M 780.76586,226.93485 C 780.76586,225.58788 780.87937,224.39983 781.10638,223.37067 C 781.3334,222.34153 781.62096,221.5394 781.96905,220.96428 C 782.31714,220.37405 782.73334,219.89731 783.21765,219.53407 C 783.70195,219.17085 784.16355,218.9287 784.60246,218.80761 C 785.05649,218.68655 785.53323,218.62601 786.03267,218.62599 C 789.54387,218.62601 791.29947,221.44103 791.29949,227.07106 C 791.29947,229.71961 790.84544,231.74763 789.93738,233.15514 C 789.04443,234.54751 787.74286,235.2437 786.03267,235.2437 C 784.30733,235.2437 782.9982,234.53995 782.10526,233.13244 C 781.21232,231.70979 780.76586,229.64393 780.76586,226.93485 M 789.25633,226.88944 C 789.25632,222.56098 788.18177,220.39675 786.03267,220.39673 C 783.88357,220.39675 782.80902,222.58368 782.80902,226.95755 C 782.80902,231.37683 783.86843,233.58647 785.98727,233.58647 C 787.10722,233.58647 787.93205,233.04163 788.46176,231.95194 C 788.99146,230.86226 789.25632,229.17476 789.25633,226.88944 M 794.38692,232.36058 L 796.77061,232.36058 L 796.77061,235.08479 C 796.77061,237.06741 795.97605,238.05872 794.38692,238.05872 L 794.38692,237.19606 C 794.91663,237.18092 795.27229,237.02957 795.45391,236.74202 C 795.65065,236.45446 795.74903,235.91719 795.74903,235.13019 L 795.74903,234.72156 L 794.38692,234.72156 L 794.38692,232.36058 M 809.52936,218.62599 L 809.52936,220.60105 L 802.83233,220.60105 L 802.19668,225.096 C 803.08961,224.44523 804.08092,224.11984 805.17062,224.11983 C 806.71433,224.11984 807.96293,224.61928 808.91641,225.61814 C 809.88501,226.6019 810.36931,227.88833 810.36932,229.47745 C 810.36931,231.17252 809.85474,232.55733 808.8256,233.63188 C 807.79645,234.70643 806.47218,235.2437 804.85279,235.2437 C 804.23227,235.2437 803.65716,235.1756 803.12746,235.03939 C 802.61288,234.90318 802.18154,234.74426 801.83345,234.56265 C 801.50049,234.3659 801.19023,234.11618 800.90268,233.81349 C 800.63026,233.49567 800.41837,233.22324 800.26703,232.99623 C 800.13082,232.75407 799.99461,232.45895 799.8584,232.11086 C 799.73732,231.74763 799.66165,231.49791 799.63138,231.3617 C 799.60111,231.22549 799.56327,231.02874 799.51787,230.77145 L 801.51563,230.77145 C 801.9848,232.57246 803.08205,233.47296 804.80739,233.47296 C 805.89707,233.47296 806.75217,233.14 807.37269,232.47408 C 808.00833,231.80817 808.32615,230.9001 808.32616,229.74987 C 808.32615,228.55425 808.00833,227.61591 807.37269,226.93485 C 806.73703,226.23867 805.88193,225.89058 804.80739,225.89057 C 804.18687,225.89058 803.65716,226.00408 803.21826,226.23109 C 802.77936,226.44298 802.32532,226.82891 801.85616,227.38888 L 800.01731,227.38888 L 801.22051,218.62599 L 809.52936,218.62599"
         id="text3384" />
      <path
         style="font-size:28.3772316px;font-style:normal;font-variant:normal;font-weight:normal;font-stretch:normal;fill:#000000;fill-opacity:1;stroke:none;stroke-width:1px;stroke-linecap:butt;stroke-linejoin:miter;stroke-opacity:1;font-family:Garuda;-inkscape-font-specification:Garuda"
         d="M 325.32503,347.65025 L 325.32503,349.19398 L 323.37268,349.19398 L 323.37268,357.34392 C 323.37267,357.76769 323.44078,358.05524 323.57699,358.20658 C 323.72833,358.3428 324.00832,358.4109 324.41696,358.4109 C 324.79532,358.4109 325.09801,358.38063 325.32503,358.32009 L 325.32503,359.90922 C 324.73478,360.01516 324.22021,360.06813 323.78131,360.06813 C 323.03971,360.06813 322.47217,359.90165 322.07868,359.56869 C 321.68518,359.25087 321.48843,358.78926 321.48843,358.18388 L 321.48843,349.19398 L 319.8766,349.19398 L 319.8766,347.65025 L 321.48843,347.65025 L 321.48843,344.3812 L 323.37268,344.3812 L 323.37268,347.65025 L 325.32503,347.65025 M 329.54507,358.71494 L 327.31746,358.71494 L 327.31746,357.82106 C 328.28228,357.6981 328.91131,357.52784 329.20454,357.31027 C 329.49777,357.09272 329.75316,356.59612 329.97073,355.82047 L 330.79367,355.82047 L 330.79367,365.88019 L 329.54507,365.88019 L 329.54507,358.71494 M 352.19328,352.29236 L 352.19328,353.88149 L 341.20561,353.88149 L 341.20561,352.29236 L 352.19328,352.29236 M 352.19328,356.19707 L 352.19328,357.7862 L 341.20561,357.7862 L 341.20561,356.19707 L 352.19328,356.19707 M 360.61632,352.51938 C 360.61632,351.17242 360.72983,349.98436 360.95685,348.9552 C 361.18386,347.92607 361.47142,347.12394 361.81952,346.54881 C 362.16761,345.95858 362.58381,345.48184 363.06811,345.1186 C 363.55241,344.75539 364.01402,344.51323 364.45292,344.39214 C 364.90695,344.27108 365.38369,344.21054 365.88314,344.21053 C 369.39434,344.21054 371.14994,347.02556 371.14995,352.65559 C 371.14994,355.30414 370.6959,357.33216 369.78784,358.73967 C 368.8949,360.13205 367.59333,360.82824 365.88314,360.82824 C 364.1578,360.82824 362.84866,360.12448 361.95573,358.71697 C 361.06279,357.29433 360.61632,355.22847 360.61632,352.51938 M 369.10679,352.47398 C 369.10678,348.14552 368.03223,345.98128 365.88314,345.98127 C 363.73403,345.98128 362.65948,348.16822 362.65948,352.54208 C 362.65948,356.96137 363.71889,359.17101 365.83773,359.17101 C 366.95768,359.17101 367.78251,358.62616 368.31223,357.53648 C 368.84193,356.44679 369.10678,354.7593 369.10679,352.47398 M 374.23739,357.94511 L 376.62108,357.94511 L 376.62108,360.66932 C 376.62107,362.65194 375.82651,363.64325 374.23739,363.64326 L 374.23739,362.78059 C 374.76709,362.76545 375.12276,362.61411 375.30437,362.32655 C 375.50112,362.039 375.59949,361.50172 375.5995,360.71473 L 375.5995,360.30609 L 374.23739,360.30609 L 374.23739,357.94511 M 379.70886,349.79517 C 379.8148,346.07209 381.58554,344.21054 385.02108,344.21053 C 386.54966,344.21054 387.79069,344.64945 388.74417,345.52723 C 389.69764,346.40505 390.17437,347.54014 390.17439,348.9325 C 390.17437,350.93027 389.03929,352.54966 386.76912,353.79068 L 384.49894,355.01658 C 383.51519,355.54629 382.81143,356.06086 382.38767,356.5603 C 381.9639,357.05974 381.69905,357.64999 381.59311,358.33104 L 390.06088,358.33104 L 390.06088,360.30609 L 379.34563,360.30609 C 379.43644,358.53536 379.7921,357.17325 380.41262,356.21977 C 381.03313,355.25117 382.18335,354.29013 383.86329,353.33665 L 385.95185,352.15615 C 387.40476,351.32376 388.13121,350.26435 388.13122,348.9779 C 388.13121,348.11525 387.82852,347.39636 387.22315,346.82123 C 386.61776,346.24614 385.86104,345.95858 384.95297,345.95857 C 382.94008,345.95858 381.85796,347.23745 381.70662,349.79517 L 379.70886,349.79517 M 402.00201,344.21053 L 402.00201,346.18558 L 395.30498,346.18558 L 394.66933,350.68054 C 395.56227,350.02976 396.55358,349.70437 397.64327,349.70436 C 399.18698,349.70437 400.43558,350.20381 401.38906,351.20268 C 402.35766,352.18643 402.84197,353.47286 402.84198,355.06198 C 402.84197,356.75705 402.32739,358.14186 401.29826,359.21641 C 400.2691,360.29096 398.94483,360.82824 397.32544,360.82824 C 396.70492,360.82824 396.12981,360.76013 395.60011,360.62392 C 395.08553,360.48771 394.6542,360.3288 394.30611,360.14718 C 393.97314,359.95043 393.66289,359.70071 393.37533,359.39802 C 393.10291,359.0802 392.89103,358.80778 392.73968,358.58076 C 392.60347,358.33861 392.46726,358.04349 392.33105,357.69539 C 392.20997,357.33216 392.1343,357.08244 392.10403,356.94623 C 392.07376,356.81002 392.03593,356.61327 391.99052,356.35598 L 393.98828,356.35598 C 394.45745,358.15699 395.5547,359.0575 397.28004,359.0575 C 398.36972,359.0575 399.22482,358.72454 399.84534,358.05862 C 400.48098,357.3927 400.79881,356.48463 400.79882,355.3344 C 400.79881,354.13878 400.48098,353.20044 399.84534,352.51938 C 399.20968,351.8232 398.35458,351.47511 397.28004,351.4751 C 396.65952,351.47511 396.12981,351.58862 395.69091,351.81563 C 395.25201,352.02752 394.79797,352.41345 394.32881,352.97342 L 392.48996,352.97342 L 393.69316,344.21053 L 402.00201,344.21053"
         id="text3400" />
      <path
         style="font-size:28.3772316px;font-style:normal;font-variant:normal;font-weight:normal;font-stretch:normal;fill:#000000;fill-opacity:1;stroke:none;stroke-width:1px;stroke-linecap:butt;stroke-linejoin:miter;stroke-opacity:1;font-family:Garuda;-inkscape-font-specification:Garuda"
         d="M 875.47982,266.0605 L 875.47982,267.60422 L 873.52746,267.60422 L 873.52746,275.75416 C 873.52746,276.17793 873.59556,276.46549 873.73178,276.61683 C 873.88312,276.75304 874.16311,276.82115 874.57174,276.82115 C 874.9501,276.82115 875.25279,276.79088 875.47982,276.73034 L 875.47982,278.31947 C 874.88956,278.42541 874.37499,278.47838 873.93609,278.47838 C 873.1945,278.47838 872.62695,278.3119 872.23346,277.97894 C 871.83996,277.66111 871.64321,277.19951 871.64321,276.59413 L 871.64321,267.60422 L 870.03139,267.60422 L 870.03139,266.0605 L 871.64321,266.0605 L 871.64321,262.79144 L 873.52746,262.79144 L 873.52746,266.0605 L 875.47982,266.0605 M 879.69985,277.12519 L 877.47224,277.12519 L 877.47224,276.23131 C 878.43706,276.10835 879.06609,275.93808 879.35933,275.72052 C 879.65255,275.50297 879.90795,275.00637 880.12551,274.23071 L 880.94845,274.23071 L 880.94845,284.29044 L 879.69985,284.29044 L 879.69985,277.12519 M 902.34806,270.70261 L 902.34806,272.29174 L 891.3604,272.29174 L 891.3604,270.70261 L 902.34806,270.70261 M 902.34806,274.60732 L 902.34806,276.19644 L 891.3604,276.19644 L 891.3604,274.60732 L 902.34806,274.60732 M 915.67469,267.25194 L 912.11051,267.25194 L 912.11051,265.82173 C 913.65423,265.62499 914.66067,265.35257 915.12985,265.00446 C 915.59901,264.65638 916.00765,263.86182 916.35575,262.62078 L 917.67245,262.62078 L 917.67245,278.71634 L 915.67469,278.71634 L 915.67469,267.25194"
         id="text3406" />
      <rect
         style="opacity:1;fill:url(#linearGradient3274);fill-opacity:1;fill-rule:evenodd;stroke:none;stroke-width:1px;stroke-linecap:butt;stroke-linejoin:miter;marker:none;marker-start:none;marker-mid:none;marker-end:none;stroke-miterlimit:4;stroke-dasharray:none;stroke-dashoffset:0;stroke-opacity:1;visibility:visible;display:inline;overflow:visible;enable-background:accumulate"
         id="rect3266"
         width="191.42857"
         height="131.42857"
         x="657.14288"
         y="626.9516"
         transform="translate(0,51.42856)" />
    </g>
  </g>
</svg>
